<?xml version="1.0" encoding="UTF-8"?>
<svg id="Layer_1" data-name="Layer 1" xmlns="http://www.w3.org/2000/svg" viewBox="65 6 90 64">
  <defs>
    <style>
      .cls-1 {
        fill: #fa921e;
      }

      .cls-1, .cls-2, .cls-3, .cls-4, .cls-5, .cls-6, .cls-7, .cls-8, .cls-9, .cls-10, .cls-11, .cls-12, .cls-13, .cls-14, .cls-15, .cls-16, .cls-17, .cls-18, .cls-19, .cls-20, .cls-21, .cls-22, .cls-23 {
        stroke-width: 0px;
      }

      .cls-2 {
        fill: #fb9624;
      }

      .cls-3 {
        fill: #faae47;
      }

      .cls-4 {
        fill: #b93c00;
      }

      .cls-5 {
        fill: #cf4306;
      }

      .cls-6 {
        fill: #fb9620;
      }

      .cls-7 {
        fill: #e65400;
      }

      .cls-8 {
        fill: #ef6300;
      }

      .cls-9 {
        fill: #b8414e;
      }

      .cls-10 {
        fill: #cd4707;
      }

      .cls-11 {
        fill: #ef6001;
      }

      .cls-12 {
        fill: #4a0500;
      }

      .cls-13 {
        fill: #b73700;
      }

      .cls-14 {
        fill: #e55701;
      }

      .cls-15 {
        fill: #b73602;
      }

      .cls-16 {
        fill: #fa7f00;
      }

      .cls-17 {
        fill: #ed5c00;
      }

      .cls-18 {
        fill: #f16500;
      }

      .cls-19 {
        fill: #de4f02;
      }

      .cls-20 {
        fill: #ee6100;
      }

      .cls-21 {
        fill: #fab654;
      }

      .cls-22 {
        fill: #600e14;
      }

      .cls-23 {
        fill: #fb9623;
      }
    </style>
  </defs>
  <g id="_62CfAi" data-name="62CfAi">
    <g>
      <path class="cls-2" d="M102.87,60.7c.07-.54.15-1.07.22-1.61.15-1.15.29-2.3.42-3.45.02-.19.09-.26.28-.26,1.16,0,2.32,0,3.48,0,.18,0,.26.06.24.24,0,.07,0,.14,0,.21,0,3.63,0,7.27,0,10.9,0,.34-.07.46-.43.44-.61-.03-1.22-.03-1.82,0-.33.01-.42-.08-.41-.41.01-2.17,0-4.34,0-6.51v-.62s-.05,0-.07,0c-.12.87-.24,1.74-.36,2.61-.2,1.52-.41,3.03-.6,4.55-.04.27-.12.41-.44.38-.4-.03-.8-.02-1.2,0-.21,0-.31-.04-.35-.28-.33-2.36-.67-4.72-1.07-7.08,0,.17-.02.34-.02.52,0,2.14,0,4.28,0,6.42,0,.35-.1.44-.44.43-.62-.03-1.24-.02-1.86,0-.26,0-.36-.05-.36-.34,0-3.7,0-7.41,0-11.11,0-.29.1-.34.36-.34,1.06.01,2.13.02,3.19,0,.33,0,.42.12.46.41.23,1.64.46,3.27.69,4.91.02,0,.04,0,.06.01Z"/>
      <path class="cls-14" d="M103.52,25.28s.06-.05.08-.08c.07-.05.13-.05.19.02.08.63-.05,1.24-.24,1.83-.26.81-.35,1.64-.45,2.47-.03.2.03.34.21.45.14.09.26.2.37.33.15.17.21.35.08.57-.11.19-.14.39-.1.6.09.49.07.99.06,1.48-.02,1.02.15,2.03.07,3.05-.04.45-.02.87.21,1.27.05.2.07.41.07.61-.05,3.08.13,6.16.08,9.25,0,.23.09.51-.21.65-.27-.09-.3-.34-.36-.56-.61-2.11-1.11-4.25-1.71-6.36-.3-1.05-.59-2.1-.89-3.15-.08-.27-.22-.39-.5-.38-1.08.04-2.15,0-3.23.05-1.07.04-2.15.04-3.22.02-.2,0-.42-.04-.57-.21-.05-.08-.05-.17-.03-.26,1.26-1.67,2.69-3.2,4.04-4.8,1.01-1.2,2.05-2.38,3.05-3.59.74-.89,1.53-1.74,2.39-2.51.25-.22.46-.47.61-.77Z"/>
      <path class="cls-10" d="M103.93,37.22c-.36-.18-.31-.57-.29-.83.05-.8.06-1.58-.03-2.38-.06-.53,0-1.07-.01-1.61,0-.29.01-.57-.06-.86-.05-.18-.02-.38.02-.57.03-.15.29-.24.18-.42-.14-.22-.31-.45-.56-.52-.19-.06-.25-.15-.22-.32.15-.89.19-1.79.49-2.66.16-.46.29-.95.26-1.45-.01-.14,0-.28.09-.4.01-.14.13-.21.22-.28,1.88-1.47,3.77-2.92,5.7-4.31.84-.6,1.66-1.22,2.43-1.92.09-.05.18-.11.28-.03-.01.36.13.68.24,1,.52,1.48,1.05,2.95,1.58,4.43,0,.25.04.48.12.72.65,2.1,1.11,4.24.98,6.46,0,.12,0,.25-.06.37-.06.12-.16.18-.3.16-.93-.52-1.8-1.13-2.71-1.67-1.42-.85-2.9-1.59-4.35-2.4-1.18-.66-2.42-1.2-3.58-1.9-.39-.24-.44-.21-.44.23,0,1.19-.06,2.38.01,3.56.13,2.28.03,4.55.07,6.83,0,.22-.02.44.13.63.02.04.03.08.02.13-.06.05-.12.06-.18,0Z"/>
      <path class="cls-2" d="M115.93,66.74c-.34-2.15-.65-4.31-.97-6.46-.23-1.53-.46-3.05-.68-4.58-.04-.25-.14-.34-.4-.33-.62.02-1.24,0-1.86,0h-1.37c-.81,0-.82,0-.93.82-.48,3.57-.95,7.13-1.43,10.7-.03.21,0,.26.21.26.88,0,1.77,0,2.65,0,.2,0,.26-.07.27-.26.02-.39.05-.77.1-1.15.1-.8.11-.79.94-.75.19,0,.26.06.27.26.02.51.09,1.02.11,1.53.01.29.11.39.42.38.77-.03,1.55-.02,2.32,0,.34,0,.41-.07.35-.42ZM112.46,62.92c-.25,0-.5,0-.74,0-.24,0-.16-.19-.15-.31.09-.85.18-1.69.28-2.54.07-.63.16-1.27.25-1.9.2,1.51.33,3.02.51,4.52.01.12.02.23-.14.23Z"/>
      <path class="cls-2" d="M96.71,59.85c-.06-1.29-.63-2.05-1.75-2.36-.82-.23-1.67-.28-2.5-.09-1.24.28-2.17.92-2.28,2.45-.02.34,0,.69-.03,1.03-.01.23.06.31.3.3.72-.01,1.44-.02,2.15,0,.25,0,.3-.08.3-.31-.01-.48,0-.97.01-1.45,0-.2.09-.38.34-.4.21-.02.41.02.48.24.17.52.16,1.07.05,1.6-.08.37-.48.42-.77.56-.66.32-1.36.53-2,.88-.46.25-.74.6-.8,1.13-.08.8-.1,1.59.02,2.39.1.67.47,1.09,1.1,1.32.99.36,1.73.14,2.57-.79,0,.14.03.26.02.38-.04.31.05.44.4.42.72-.03,1.44-.02,2.15,0,.24,0,.31-.08.3-.31-.02-2.33.04-4.67-.07-7ZM93.82,65.17c-.02.22-.09.38-.33.4-.2.02-.38,0-.49-.22-.44-.84-.01-2.32.87-2.83-.01.92.03,1.78-.05,2.65Z"/>
      <path class="cls-16" d="M93.48,37.13c.2.14.43.17.66.17,1.01,0,2.03.02,3.03-.02,1.1-.05,2.2,0,3.3-.06.37-.02.52.09.62.46.49,1.86,1.03,3.71,1.53,5.56.37,1.35.71,2.71,1.06,4.06.04.16.2.27.16.46.2.16.22.4.26.63.07.38.19.74.44,1.05-.09.12-.2.21-.34.08-.38-.34-.9-.49-1.27-.85-.84-1.67-2.27-2.86-3.44-4.26-1.33-1.58-2.75-3.09-4.1-4.65-.64-.74-1.24-1.51-1.93-2.21-.08-.09-.18-.15-.27-.23-.05-.07-.1-.14-.01-.22.11-.05.21-.04.3.03Z"/>
      <path class="cls-1" d="M112.15,18.73c-.37.52-.91.86-1.41,1.23-2.21,1.62-4.41,3.26-6.57,4.96-.13.1-.27.19-.4.29-.06,0-.11,0-.17,0,.2-.89.41-1.77.59-2.66.47-2.36,1.07-4.7,1.5-7.07.11-.58.25-1.16.38-1.73.04-.18.06-.35,0-.53.19-.1.27.07.37.16,1.04.96,2.03,1.98,3.07,2.93.78.72,1.62,1.36,2.4,2.08.11.1.27.16.23.35Z"/>
      <path class="cls-18" d="M104.55,49.43c-.45-.11-.38-.55-.51-.85-.11-.26-.13-.55-.19-.83.21-.03.16-.19.16-.32,0-1.42.07-2.85-.02-4.27-.11-1.74-.03-3.48-.06-5.21,0-.24-.13-.48,0-.73.05,0,.11,0,.16,0,.15-.13.34-.11.51-.11,1.67,0,3.34,0,5.01,0,.63,0,.74.18.48.76-.88,1.98-1.83,3.93-2.88,5.83-.76,1.36-1.51,2.73-2,4.23-.05.17-.24.41.15.45.15.16-.01.26-.08.37-.07.13-.19.23-.29.34-.16.11-.26.3-.47.34Z"/>
      <path class="cls-2" d="M78.79,61.27c0-1.84,0-3.67,0-5.51,0-.31.08-.4.39-.39.75.02,1.49.03,2.24,0,.33-.01.41.09.41.41-.01,2.86,0,5.72-.02,8.58,0,.37.08.51.47.48.38-.04.77,0,1.16-.01.2,0,.27.06.26.26,0,.61,0,1.22,0,1.82,0,.18-.06.24-.24.24-1.48,0-2.96,0-4.43,0-.31,0-.23-.21-.23-.37,0-1.84,0-3.67,0-5.51Z"/>
      <path class="cls-2" d="M84.59,61.27c0-1.84,0-3.67,0-5.51,0-.31.08-.4.39-.39.75.02,1.49.03,2.24,0,.33-.01.41.09.41.41-.01,2.86,0,5.72-.02,8.58,0,.37.08.51.47.48.38-.04.77,0,1.16-.01.2,0,.27.06.26.26,0,.61,0,1.22,0,1.82,0,.18-.06.24-.24.24-1.48,0-2.96,0-4.43,0-.31,0-.23-.21-.23-.37,0-1.84,0-3.67,0-5.51Z"/>
      <path class="cls-23" d="M93.49,37.47c.52.41.88.98,1.32,1.46.45.48.83,1.02,1.28,1.51,1.39,1.5,2.73,3.05,4.08,4.59.69.78,1.4,1.55,2.08,2.34.33.38.58.8.68,1.3-1.21-.71-2.41-1.44-3.62-2.14-1.94-1.12-3.88-2.23-5.82-3.35-.11-.13-.14-.3-.14-.46,0-1.61,0-3.21,0-4.82,0-.15,0-.3.13-.42Z"/>
      <path class="cls-8" d="M103.52,25.28c.03.21-.05.37-.21.51-.41.39-.83.77-1.23,1.16-.63.63-1.18,1.33-1.77,2.01-.62.72-1.23,1.44-1.84,2.16-.7.82-1.43,1.63-2.1,2.48-.45.57-.97,1.08-1.45,1.63-.41.48-.76,1.01-1.17,1.48-.08.09-.13.17-.26.18-.13-.11-.14-.27-.13-.42.05-1.41-.12-2.81-.08-4.22,0-.4-.04-.84.29-1.17,2.48-1.43,4.97-2.85,7.45-4.29.84-.49,1.67-1.01,2.5-1.52Z"/>
      <path class="cls-6" d="M105.01,49.08c.04-.28.28-.44.41-.67.06-.38.38-.59.61-.85,1.78-2.05,3.67-4,5.42-6.08,1.08-1.27,2.21-2.5,3.23-3.82.1-.13.2-.35.42-.13.09.2.06.41.06.61.01,1.58-.02,3.17.02,4.75,0,.05.02.1.03.15-.64.47-1.36.79-2.03,1.19-1.39.84-2.8,1.64-4.19,2.49-1.04.63-2.09,1.23-3.12,1.87-.28.17-.57.34-.85.5Z"/>
      <path class="cls-20" d="M115.21,31.67c0-1.19.08-2.4-.18-3.57-.24-1.1-.41-2.23-.82-3.3-.1-.25-.12-.48.01-.71,1.1,2.84,2.11,5.7,3.14,8.57.84,2.34,1.69,4.68,2.54,7.03.06.17.13.34.11.52-.25.13-.42-.06-.6-.17-.7-.41-1.37-.89-2.07-1.29-.67-.38-1.32-.8-1.96-1.24-.11-.08-.24-.14-.31-.27-.07-.13-.08-.26-.08-.4-.04-1.6.04-3.19.08-4.79,0-.14.05-.27.12-.39Z"/>
      <path class="cls-3" d="M93.56,31.08c-.13.35-.15.73-.15,1.09.01,1.57.05,3.14.07,4.71,0,.08,0,.16-.01.24-.11,0-.22,0-.32.01-.29.06-.5-.13-.71-.26-1.29-.81-2.61-1.56-3.91-2.36-.16-.1-.39-.19-.27-.47.69-.4,1.37-.8,2.06-1.19,1.03-.58,2.06-1.16,3.09-1.74.05-.03.1-.03.15-.05Z"/>
      <path class="cls-21" d="M93.49,37.47c0,1.9,0,3.8,0,5.7-1.02-.56-2.04-1.12-3.06-1.69-.78-.43-1.55-.86-2.33-1.28.5-.39,1.02-.74,1.58-1.03,1.07-.56,2.11-1.18,3.17-1.75.12-.06.23-.17.38-.11.12,0,.2.05.25.16Z"/>
      <path class="cls-11" d="M93.24,37.31c-1.09.61-2.17,1.23-3.26,1.83-.54.3-1.08.59-1.57.97-.09.07-.19.1-.31.1,0-1.46-.02-2.91-.02-4.37,0-.49,0-.99,0-1.48,0-.13-.03-.29.18-.3,0,.16.09.25.22.32,1.58.89,3.08,1.91,4.68,2.76.03.05.06.11.08.16Z"/>
      <path class="cls-15" d="M129.17,63.05c-.03-.44-.31-.66-.71-.75-.45-.11-.79.12-1.16.46.09-.41-.1-.44-.37-.42-.27.02-.55.01-.83,0-.2,0-.26.06-.26.26,0,1.66,0,3.32,0,4.97,0,.17.04.25.23.25.33-.01.66-.01,1,0,.19,0,.24-.07.23-.24-.01-.26,0-.51,0-.83.15.12.23.21.33.27.67.47,1.52.06,1.55-.66.04-1.11.07-2.21-.01-3.31ZM127.75,66.15c0,.12-.03.25-.21.25-.19,0-.23-.12-.23-.28,0-.47,0-.94,0-1.41s0-.91,0-1.37c0-.16.05-.27.23-.27.18,0,.2.13.2.25.04.94.05,1.88,0,2.81Z"/>
      <path class="cls-15" d="M125.1,63c-.03-.36-.26-.56-.59-.67-.5-.17-.88.06-1.27.43.08-.36-.06-.45-.33-.42-.29.02-.58.02-.87,0-.21,0-.26.07-.25.27,0,1.64,0,3.29,0,4.93,0,.11-.05.27.15.27.41,0,.87.1,1.22-.05.22-.09.04-.58.08-.89,0-.01,0-.03.02-.09.14.11.25.21.38.29.6.36,1.35.09,1.43-.55.14-1.17.12-2.34.02-3.51ZM123.69,66.12c0,.13,0,.29-.21.29-.22,0-.23-.16-.23-.32,0-.46,0-.91,0-1.37v-1.32c0-.16.02-.31.24-.31.21,0,.2.17.2.3,0,.91,0,1.82,0,2.73Z"/>
      <path class="cls-19" d="M115.21,37.3c.41.14.71.46,1.08.68,1.1.64,2.17,1.34,3.25,2.01.15.09.3.19.49.21,0,.11.15.28-.07.32-.79.16-1.39.68-2.08,1.04-.9.46-1.78.98-2.66,1.47-.03,0-.05-.02-.08-.02-.07-.14-.04-.3-.04-.45,0-1.74,0-3.47,0-5.21.02-.06.06-.08.13-.06Z"/>
      <path class="cls-12" d="M113.12,12.46c1.25.82,2.61,1.46,3.85,2.3.11.08.21.17.32.25,0,.15-.12.21-.22.27-1.25.8-2.43,1.7-3.66,2.54-.23.16-.44.33-.63.53-.1.11-.2.23-.38.22-.06-.04-.09-.1-.11-.17-.09-.72.11-1.42.18-2.13.11-1.04.25-2.08.38-3.11.03-.25,0-.53.26-.7Z"/>
      <path class="cls-17" d="M113.12,12.46c-.2.62-.2,1.27-.28,1.91-.17,1.37-.38,2.73-.46,4.11-.2.23-.28,0-.36-.11-.41-.57-.68-1.23-.99-1.86-.59-1.2-1.13-2.42-1.72-3.62-.08-.16-.2-.32,0-.48.09-.07.17-.17.31-.12.89.07,1.78-.02,2.66-.1.35-.03.62-.02.84.27Z"/>
      <path class="cls-9" d="M106.09,13.09c.47-.67.78-1.42,1.15-2.15,1.06-2.1,2.1-4.22,3.05-6.38.09-.21.21-.44.52-.34.11.13.05.26.02.39-.53,1.83-.93,3.68-1.29,5.55-.14.76-.2,1.53-.31,2.29-.07.15-.2.22-.35.27-.83.28-1.69.4-2.56.46-.08,0-.16-.03-.23-.08Z"/>
      <path class="cls-5" d="M112.47,18.56c.5-.65,1.22-1.03,1.86-1.5.97-.7,1.97-1.37,2.95-2.05.66.37.89.8.75,1.49-.13.62-.28,1.23-.41,1.85-.04.18-.1.29-.32.29-1.61-.03-3.22.08-4.82,0-.03-.02-.04-.03-.03-.05,0-.02.02-.03.03-.03Z"/>
      <path class="cls-4" d="M112.47,18.56s0,.05,0,.08c0,0-.03.02-.03.02,0,0-.04,0-.04,0-.09.02-.17.05-.26.07-.67-.59-1.32-1.2-2-1.76-.92-.76-1.73-1.64-2.61-2.44-.49-.44-.89-.97-1.45-1.32-.07-.04-.1-.08,0-.11.92-.1,1.85-.18,2.74-.48.12-.04.24-.07.33-.16.08-.09.17-.09.25-.01-.07.08-.17.12-.09.29.83,1.69,1.64,3.4,2.46,5.1.11.22.26.42.39.63.06.1.14.06.21.02.03.03.06.05.09.08Z"/>
      <path class="cls-15" d="M119.28,64.73c0,.41,0,.83,0,1.24,0,.19.02.42.28.42.25,0,.23-.23.26-.4.05-.27-.12-.65.08-.78.2-.14.56-.03.84-.06.3-.03.36.08.36.37-.02,1.41-1.29,2.17-2.56,1.51-.5-.26-.67-.73-.69-1.24-.03-.73-.03-1.46,0-2.2.03-.77.52-1.21,1.43-1.32,1.08-.13,1.84.56,1.82,1.63,0,.19-.04.29-.25.26-.12-.01-.25,0-.37,0q-.68,0-.73-.69c-.01-.16,0-.37-.22-.38-.27-.01-.24.22-.25.39,0,.41,0,.83,0,1.24Z"/>
      <path class="cls-22" d="M109.41,12.44c-.08,0-.17,0-.25.01.01-1.09.24-2.16.45-3.22.28-1.49.65-2.96,1.03-4.42.05-.2.21-.36.17-.58.08,0,.17-.01.25-.01.52,0,.6.08.51.57-.27,1.54-.56,3.09-.84,4.63-.06.35-.15.7-.17,1.06-.04.76-.32,1.38-.94,1.84-.07.05-.14.09-.21.14Z"/>
      <path class="cls-15" d="M117.28,66.59q0,.56-.6.56t-.48-.68q0-.48.6-.48.48,0,.48.6Z"/>
      <path class="cls-13" d="M104.1,37.14c-.33.01-.25-.23-.25-.41,0-1.99.05-3.98-.02-5.97-.06-1.61-.05-3.23-.06-4.84,0-.52,0-.53.44-.29,2.15,1.14,4.32,2.27,6.45,3.44,1.4.77,2.77,1.59,4.09,2.48.08.05.17.09.21.19-.05.22-.25.28-.42.37-1.19.62-2.4,1.18-3.61,1.73-1.64.75-3.26,1.55-4.87,2.36-.6.3-1.23.57-1.8.92-.05.03-.1.04-.16.02Z"/>
      <path class="cls-7" d="M104.1,37.14c.62-.49,1.37-.75,2.06-1.1,1.38-.7,2.76-1.4,4.17-2.04,1.37-.63,2.74-1.27,4.09-1.94.18-.09.36-.21.53-.31.08-.03.17-.05.25-.08,0,1.71-.13,3.41-.08,5.12,0,.18-.02.36.08.52h-.04s-.04,0-.04,0c-.06.05-.1.11-.17.16-1.16,1.56-2.47,2.99-3.74,4.45-.95,1.09-1.93,2.15-2.89,3.23-.97,1.09-1.93,2.18-2.9,3.27-.04,0-.08.01-.12.03-.09.03-.16.19-.28.08-.1-.09-.02-.22,0-.31.17-.51.35-1.01.56-1.51.51-1.22,1.18-2.36,1.81-3.52.63-1.17,1.25-2.36,1.79-3.58.27-.6.57-1.19.84-1.79.23-.52.19-.59-.37-.59-1.85,0-3.7,0-5.55,0,0-.03,0-.05,0-.08Z"/>
      <path class="cls-20" d="M114.96,37.46c0-.11.06-.16.17-.16,0,1.9,0,3.81,0,5.71-.14-.12-.08-.28-.08-.42,0-1.55,0-3.1,0-4.66,0-.16.06-.33-.08-.47Z"/>
    </g>
  </g>
</svg>
